<?xml version="1.0" ?><!DOCTYPE svg  PUBLIC '-//W3C//DTD SVG 1.1//EN'  'http://www.w3.org/Graphics/SVG/1.1/DTD/svg11.dtd'><svg height="8.26772in" style="shape-rendering:geometricPrecision; text-rendering:geometricPrecision; image-rendering:optimizeQuality; fill-rule:evenodd; clip-rule:evenodd" version="1.1" viewBox="0 0 826772 826772" width="8.26772in" xml:space="preserve" xmlns="http://www.w3.org/2000/svg" xmlns:xlink="http://www.w3.org/1999/xlink"><defs><style type="text/css">
   <![CDATA[
    .fil1 {fill:#5F8343}
    .fil0 {fill:#719A4E}
    .fil4 {fill:#7FAD5B}
    .fil2 {fill:#5F8343;fill-rule:nonzero}
    .fil3 {fill:white;fill-rule:nonzero}
   ]]>
  </style></defs><g id="Layer_x0020_1"><circle class="fil0" cx="413386" cy="413386" r="413386"/><path class="fil1" d="M719909 663278c-75640,75270 -184950,122559 -306523,122559 -25879,0 -51194,-2164 -75756,-6263l-139569 -150864 414972 -300292 106876 334860z"/><path class="fil2" d="M628710 407844c0,115861 -94642,209771 -211406,209771 -37064,0 -71889,-9475 -102192,-26098l-117051 37193 38155 -112557c-19250,-31625 -30331,-68689 -30331,-108309 0,-115858 94643,-209783 211419,-209783 116764,0 211406,93925 211406,209783zm-104662 48304l0 0c-1307,-2138 -4750,-3430 -9933,-5999 -5182,-2570 -30676,-15016 -35413,-16725 -4753,-1706 -8211,-2568 -11672,2571 -3444,5153 -13379,16723 -16408,20153 -3028,3433 -6042,3863 -11224,1293 -5168,-2569 -21878,-7996 -41672,-25522 -15403,-13623 -25811,-30447 -28825,-35602 -3031,-5139 -318,-7924 2266,-10477 2342,-2312 5183,-6016 7781,-9002 2599,-3014 3459,-5153 5183,-8585 1737,-3431 862,-6429 -432,-9015 -1292,-2569 -11670,-27876 -15975,-38168 -4321,-10294 -8629,-8572 -11657,-8572 -3029,0 -6474,-430 -9934,-430 -3460,0 -9072,1292 -13823,6431 -4753,5155 -18131,17585 -18131,42880 0,25308 18561,49753 21160,53184 2583,3417 35843,57031 88511,77632 52698,20585 52698,13722 62201,12847 9488,-847 30648,-12430 34984,-24446 4305,-12000 4305,-22307 3013,-24448z"/><path class="fil3" d="M628710 407844c0,115861 -94642,209771 -211406,209771 -37064,0 -71889,-9475 -102192,-26098l-117051 37193 38155 -112557c-19250,-31625 -30331,-68689 -30331,-108309 0,-115858 94643,-209783 211419,-209783 116764,0 211406,93925 211406,209783zm-211406 -176378l0 0c-98014,0 -177742,79125 -177742,176365 0,38586 12575,74330 33848,103398l-22206 65487 68300 -21704c28064,18431 61685,29170 97787,29170 98002,0 177742,-79112 177742,-176366 15,-97225 -79727,-176350 -177729,-176350zm106744 224682l0 0c-1307,-2138 -4750,-3430 -9933,-5999 -5182,-2570 -30676,-15016 -35413,-16725 -4753,-1706 -8211,-2568 -11672,2571 -3444,5153 -13379,16723 -16408,20153 -3028,3433 -6042,3863 -11224,1293 -5168,-2569 -21878,-7996 -41672,-25522 -15403,-13623 -25811,-30447 -28825,-35602 -3031,-5139 -318,-7924 2266,-10477 2342,-2312 5183,-6016 7781,-9002 2599,-3014 3459,-5153 5183,-8585 1737,-3431 862,-6429 -432,-9015 -1292,-2569 -11670,-27876 -15975,-38168 -4321,-10294 -8629,-8572 -11657,-8572 -3029,0 -6474,-430 -9934,-430 -3460,0 -9072,1292 -13823,6431 -4753,5155 -18131,17585 -18131,42880 0,25308 18561,49753 21160,53184 2583,3417 35843,57031 88511,77632 52698,20585 52698,13722 62201,12847 9488,-847 30648,-12430 34984,-24446 4305,-12000 4305,-22307 3013,-24448z"/><circle class="fil0" cx="413386" cy="413386" r="413386"/><path class="fil4" d="M825594 444750c-16029,213654 -194454,382022 -412208,382022 -217755,0 -396180,-168368 -412208,-382022 16028,-213654 194453,-388715 412208,-388715 217754,0 396179,175061 412208,388715z"/><path class="fil0" d="M726351 683461c-75804,87764 -187896,143311 -312965,143311 -11223,0 -22336,-464 -33332,-1341l-181993 -196721 38155 -112557c-19250,-31625 -30331,-68689 -30331,-108309 0,-115858 94643,-209783 211419,-209783 88436,0 164167,53886 195716,130367l13 -10 58 184c4260,10353 7717,21115 10282,32215l102978 322644z"/><path class="fil3" d="M628710 407844c0,115861 -94642,209771 -211406,209771 -37064,0 -71889,-9475 -102192,-26098l-117051 37193 38155 -112557c-19250,-31625 -30331,-68689 -30331,-108309 0,-115858 94643,-209783 211419,-209783 116764,0 211406,93925 211406,209783zm-211406 -176378l0 0c-98014,0 -177742,79125 -177742,176365 0,38586 12575,74330 33848,103398l-22206 65487 68300 -21704c28064,18431 61685,29170 97787,29170 98002,0 177742,-79112 177742,-176366 15,-97225 -79727,-176350 -177729,-176350zm106744 224682l0 0c-1307,-2138 -4750,-3430 -9933,-5999 -5182,-2570 -30676,-15016 -35413,-16725 -4753,-1706 -8211,-2568 -11672,2571 -3444,5153 -13379,16723 -16408,20153 -3028,3433 -6042,3863 -11224,1293 -5168,-2569 -21878,-7996 -41672,-25522 -15403,-13623 -25811,-30447 -28825,-35602 -3031,-5139 -318,-7924 2266,-10477 2342,-2312 5183,-6016 7781,-9002 2599,-3014 3459,-5153 5183,-8585 1737,-3431 862,-6429 -432,-9015 -1292,-2569 -11670,-27876 -15975,-38168 -4321,-10294 -8629,-8572 -11657,-8572 -3029,0 -6474,-430 -9934,-430 -3460,0 -9072,1292 -13823,6431 -4753,5155 -18131,17585 -18131,42880 0,25308 18561,49753 21160,53184 2583,3417 35843,57031 88511,77632 52698,20585 52698,13722 62201,12847 9488,-847 30648,-12430 34984,-24446 4305,-12000 4305,-22307 3013,-24448z"/></g></svg>